<svg xmlns:dc="http://purl.org/dc/elements/1.1/" xmlns:cc="http://creativecommons.org/ns#" xmlns:rdf="http://www.w3.org/1999/02/22-rdf-syntax-ns#" xmlns:svg="http://www.w3.org/2000/svg" xmlns="http://www.w3.org/2000/svg" xmlns:sodipodi="http://sodipodi.sourceforge.net/DTD/sodipodi-0.dtd" xmlns:inkscape="http://www.inkscape.org/namespaces/inkscape" viewBox="0 0 80 80" version="1.1" x="0px" y="0px" width="80.0" height="80.0"><path style="" d="m 41.617414,50.942223 c -0.643983,0 -1.189129,0.519846 -1.189129,1.163829 0.07827,3.410011 0.03093,6.694646 0.0253,10.322649 -0.05846,5.348008 -0.0253,10.162112 -0.0253,15.230968 0,0.643984 0.545146,1.163828 1.189129,1.163828 l 3.870994,0 c 0.643982,0 1.163828,-0.519844 1.163828,-1.163828 -0.105083,-5.062132 0.03102,-9.182322 0.0759,-15.205667 -0.01823,-4.013574 -0.0759,-6.932447 -0.0759,-10.34795 0,-0.643983 -0.519846,-1.163829 -1.163828,-1.163829 z m -7.691386,0.126504 c -0.643984,0 -1.163828,0.519845 -1.163828,1.163828 0.07856,3.414121 -0.121261,6.938829 0.0253,10.322649 -0.05845,5.052275 -0.0253,10.179114 -0.0253,15.256268 0,0.643981 0.519844,1.138528 1.163828,1.138528 l 3.870994,0 c 0.64398,0 1.163828,-0.494547 1.163828,-1.138528 -0.105152,-5.070341 0.157626,-10.21189 -0.0253,-15.256268 0.08284,-3.388764 0.0253,-6.903891 0.0253,-10.322649 0,-0.643983 -0.519848,-1.163828 -1.163828,-1.163828 z" fill="#000000" fill-opacity="1" stroke="none"></path><path d="m 33.541089,25.107573 12.399197,0 c 0.858645,0 1.549892,0.691255 1.549892,1.549898 l 0,24.023459 c 0,0.858643 -0.691247,1.549898 -1.549892,1.549898 l -12.399197,0 c -0.858649,0 -1.549895,-0.691255 -1.549895,-1.549898 l 0,-24.023459 c 0,-0.858643 0.691246,-1.549898 1.549895,-1.549898 z" style="" fill="#000000" fill-opacity="1" stroke="none"></path><path d="m 45.552817,18.520521 c 0,3.209945 -2.602168,5.812127 -5.812123,5.812127 -3.209943,0 -5.812122,-2.602182 -5.812122,-5.812127 0,-3.209945 2.602179,-5.812122 5.812122,-5.812122 3.209955,0 5.812123,2.602177 5.812123,5.812122 z" style="" fill="#000000" fill-opacity="1" stroke="none"></path><path style="" d="m 33.74307,25.47379 c -0.572883,-0.294164 -1.268369,-0.0706 -1.562522,0.502281 l -4.682754,9.11956 -0.02423,0.04694 c -0.452645,0.94157 -0.07367,2.077214 0.861231,2.55728 0.93493,0.480065 2.078682,0.126295 2.580122,-0.790208 0.0083,-0.01505 0.0162,-0.03155 0.02398,-0.04694 l 4.682752,-9.119564 c 0.294168,-0.572872 0.07056,-1.268363 -0.502281,-1.562527 l -1.376536,-0.706828 z" fill="#000000" fill-opacity="1" stroke="none"></path><path style="" d="m 29.78875,34.868553 c -0.928883,-0.476965 -2.065687,-0.128822 -2.572074,0.774567 -0.011,0.02099 -0.02099,0.04113 -0.03206,0.06255 l -4.56227,8.884933 c -0.294153,0.572871 -0.07054,1.268362 0.502285,1.562523 l 1.376534,0.706833 c 0.57287,0.294158 1.268368,0.0706 1.562537,-0.502281 l 4.562256,-8.884926 c 0.011,-0.02148 0.02197,-0.04102 0.03222,-0.06256 0.439077,-0.937943 0.05968,-2.064674 -0.869266,-2.541642 z" fill="#000000" fill-opacity="1" stroke="none"></path><path style="" d="M 51.127593,6.1123919 C 50.587747,6.0751048 50.063081,6.4294365 49.913164,6.9726127 L 47.2566,16.586844 c -0.0068,0.02323 0.0052,0.05268 0,0.0759 -0.02603,0.109816 -0.06925,0.219654 -0.0759,0.328908 -9.78e-4,0.01607 5.72e-4,0.03457 0,0.0506 -0.02149,0.05215 -0.05876,0.09701 -0.0759,0.151804 -0.0054,0.01641 -0.02024,0.03399 -0.0253,0.0506 l -2.808368,9.867239 c -0.176072,0.619447 0.190153,1.240769 0.80962,1.416834 l 1.492736,0.43011 c 0.619448,0.17607 1.266056,-0.164866 1.442135,-0.784319 l 2.783067,-9.867238 0.0253,-0.0506 c 0.02603,-0.101649 0.04135,-0.202199 0.0506,-0.303608 0.03843,-0.08049 0.07364,-0.165739 0.101202,-0.253006 0.0068,-0.02273 0.01874,-0.0527 0.0253,-0.0759 l 2.656564,-9.6142313 c 0.171344,-0.62079 -0.18884,-1.2708031 -0.809619,-1.4421348 L 51.355299,6.1629931 c -0.0776,-0.021417 -0.150586,-0.045275 -0.227706,-0.050601 z" fill="#000000" fill-opacity="1" stroke="none"></path><path style="" d="m 123.36756,17.663774 0.74282,4.30606 -4.11787,-1.12875 -0.30928,4.358702 -3.72809,-2.081423 -1.34339,4.158032 -3.12165,-2.913131 -2.29944,3.715711 -2.33377,-3.575539 -3.12185,3.057448 -1.41028,-4.030149 -3.762827,2.221497 -0.404821,-4.250542 -4.185126,1.25644 0.624164,-4.223909 -4.364201,0.218364 1.616875,-3.951798 -4.289642,-0.832402 2.515618,-3.450022 -3.965787,-1.8347937 3.268164,-2.7477439 -3.411453,-2.7305523 3.830775,-1.8857767 -2.658859,-3.4676217 4.170755,-0.914215 -1.75174,-4.0031654 4.268346,0.1104774 -0.742818,-4.3060597 4.117877,1.128749 0.309275,-4.358701 3.728095,2.081423 1.34339,-4.158032 3.12164,2.913131 2.29944,-3.715711 2.33378,3.575539 3.12185,-3.057449 1.41027,4.03015 3.76283,-2.221497 0.40482,4.250542 4.18513,-1.25644 -0.62416,4.2239089 4.3642,-0.2183641 -1.61688,3.9517977 4.28964,0.8324027 -2.51561,3.45002218 3.96578,1.83479322 -3.26816,2.7477439 3.41145,2.7305524 -3.83077,1.8857767 2.65886,3.4676214 -4.17076,0.914215 1.75174,4.003166 z" transform="matrix(0.31103979,0,0,0.31546787,18.190348,6.0297491)" fill="#000000" fill-opacity="1" stroke="none"></path><path style="" d="m 123.36756,17.663774 0.74282,4.30606 -4.11787,-1.12875 -0.30928,4.358702 -3.72809,-2.081423 -1.34339,4.158032 -3.12165,-2.913131 -2.29944,3.715711 -2.33377,-3.575539 -3.12185,3.057448 -1.41028,-4.030149 -3.762827,2.221497 -0.404821,-4.250542 -4.185126,1.25644 0.624164,-4.223909 -4.364201,0.218364 1.616875,-3.951798 -4.289642,-0.832402 2.515618,-3.450022 -3.965787,-1.8347937 3.268164,-2.7477439 -3.411453,-2.7305523 3.830775,-1.8857767 -2.658859,-3.4676217 4.170755,-0.914215 -1.75174,-4.0031654 4.268346,0.1104774 -0.742818,-4.3060597 4.117877,1.128749 0.309275,-4.358701 3.728095,2.081423 1.34339,-4.158032 3.12164,2.913131 2.29944,-3.715711 2.33378,3.575539 3.12185,-3.057449 1.41027,4.03015 3.76283,-2.221497 0.40482,4.250542 4.18513,-1.25644 -0.62416,4.2239089 4.3642,-0.2183641 -1.61688,3.9517977 4.28964,0.8324027 -2.51561,3.45002218 3.96578,1.83479322 -3.26816,2.7477439 3.41145,2.7305524 -3.83077,1.8857767 2.65886,3.4676214 -4.17076,0.914215 1.75174,4.003166 z" transform="matrix(0.31103979,0,0,0.31546787,-9.7320655,44.158999)" fill="#000000" fill-opacity="1" stroke="none"></path></svg>