<?xml version="1.0" encoding="UTF-8" standalone="no"?>
<svg xmlns:svg="http://www.w3.org/2000/svg"
     xmlns="http://www.w3.org/2000/svg" version="1.1"
     width="360.0" height="185.0">
    <!-- Created with parliamentarch (https://github.com/Gouvernathor/parliamentarch/) -->
    <text x="180.0" y="175.0"
          style="font-size:36px;font-weight:bold;text-align:center;text-anchor:middle;font-family:sans-serif">29</text>
    <g style="fill:#adc1fd"
       id="0-Faire-vivre-Champagne">
        <title>Faire vivre Champagne</title>
        <circle cx="23.48" cy="162.50" r="14.00"/>
        <circle cx="58.76" cy="162.50" r="14.00"/>
        <circle cx="94.27" cy="162.50" r="14.00"/>
        <circle cx="32.30" cy="125.32" r="14.00"/>
        <circle cx="72.51" cy="121.25" r="14.00"/>
        <circle cx="49.82" cy="91.35" r="14.00"/>
        <circle cx="110.76" cy="126.50" r="14.00"/>
        <circle cx="75.00" cy="62.61" r="14.00"/>
        <circle cx="99.80" cy="87.40" r="14.00"/>
        <circle cx="106.37" cy="40.77" r="14.00"/>
        <circle cx="141.43" cy="101.46" r="14.00"/>
        <circle cx="137.21" cy="65.22" r="14.00"/>
        <circle cx="142.07" cy="27.14" r="14.00"/>
        <circle cx="180.00" cy="92.50" r="14.00"/>
        <circle cx="180.00" cy="57.50" r="14.00"/>
        <circle cx="180.00" cy="22.50" r="14.00"/>
        <circle cx="217.93" cy="27.14" r="14.00"/>
        <circle cx="222.79" cy="65.22" r="14.00"/>
        <circle cx="218.57" cy="101.46" r="14.00"/>
        <circle cx="253.63" cy="40.77" r="14.00"/>
        <circle cx="260.20" cy="87.40" r="14.00"/>
        <circle cx="285.00" cy="62.61" r="14.00"/>
        <circle cx="249.24" cy="126.50" r="14.00"/>
        <circle cx="310.18" cy="91.35" r="14.00"/>
        <circle cx="287.49" cy="121.25" r="14.00"/>
        <circle cx="327.70" cy="125.32" r="14.00"/>
    </g>
    <g style="fill:#ffffff; stroke-width:7.00; stroke:#adc1fd"
       id="1-Champagne-unis-pour-l-avenir">
        <title>Champagne unis pour l’avenir</title>
        <circle cx="265.73" cy="162.50" r="10.50"/>
        <circle cx="301.24" cy="162.50" r="10.50"/>
        <circle cx="336.52" cy="162.50" r="10.50"/>
    </g>
</svg>

